<svg width="78" height="77" viewBox="0 0 78 77" fill="none" xmlns="http://www.w3.org/2000/svg">
<rect x="0.973969" y="46.13" width="2.49351" height="29.9221" fill="white"/>
<rect x="77.0258" y="29.9222" width="2.49351" height="29.9221" transform="rotate(-180 77.0258 29.9222)" fill="white"/>
<rect x="74.5324" y="36.1558" width="2.49351" height="39.8961" fill="white"/>
<rect x="0.97398" width="2.49351" height="39.8961" fill="white"/>
<rect x="0.973969" y="73.5584" width="29.9221" height="2.49351" fill="white"/>
<rect x="77.0258" y="2.49349" width="29.9221" height="2.49351" transform="rotate(-180 77.0258 2.49349)" fill="white"/>
<rect x="37.13" y="73.5584" width="39.8961" height="2.49351" fill="white"/>
<rect x="0.97398" width="39.8961" height="2.49351" fill="white"/>
<path d="M45.0261 57.3507H40.5932V52.9178H45.0261V57.3507ZM40.5932 41.8355H36.1603V52.9178H40.5932V41.8355ZM58.3248 37.4026H53.8919V46.2684H58.3248V37.4026ZM53.8919 32.9697H49.459V37.4026H53.8919V32.9697ZM27.2945 37.4026H22.8616V41.8355H27.2945V37.4026ZM22.8616 32.9697H18.4287V37.4026H22.8616V32.9697ZM38.3768 21.8875H42.8097V17.4546H38.3768V21.8875ZM21.7534 20.7793V27.4286H28.4027V20.7793H21.7534ZM31.7274 30.7533H18.4287V17.4546H31.7274V30.7533ZM21.7534 47.3767V54.026H28.4027V47.3767H21.7534ZM31.7274 57.3507H18.4287V44.052H31.7274V57.3507ZM48.3508 20.7793V27.4286H55.0001V20.7793H48.3508ZM58.3248 30.7533H45.0261V17.4546H58.3248V30.7533ZM53.8919 52.9178V46.2684H45.0261V50.7013H49.459V57.3507H58.3248V52.9178H53.8919ZM49.459 37.4026H40.5932V41.8355H49.459V37.4026ZM40.5932 32.9697H27.2945V37.4026H31.7274V41.8355H36.1603V37.4026H40.5932V32.9697ZM42.8097 30.7533V26.3204H38.3768V21.8875H33.9439V30.7533H42.8097ZM26.7404 22.4416H23.4157V25.7663H26.7404V22.4416ZM26.7404 49.039H23.4157V52.3637H26.7404V49.039ZM53.3378 22.4416H50.0131V25.7663H53.3378V22.4416Z" fill="white"/>
</svg>
