<svg width="76" height="76" viewBox="0 0 76 76" fill="none" xmlns="http://www.w3.org/2000/svg">
<rect y="46.0983" width="2.4918" height="29.9016" fill="white"/>
<rect x="76" y="29.9017" width="2.4918" height="29.9016" transform="rotate(-180 76 29.9017)" fill="white"/>
<rect x="73.5081" y="36.1311" width="2.4918" height="39.8689" fill="white"/>
<rect width="2.4918" height="39.8689" fill="white"/>
<rect y="73.5081" width="29.9016" height="2.4918" fill="white"/>
<rect x="76" y="2.49192" width="29.9016" height="2.4918" transform="rotate(-180 76 2.49192)" fill="white"/>
<rect x="36.1311" y="73.5081" width="39.8689" height="2.4918" fill="white"/>
<rect width="39.8689" height="2.4918" fill="white"/>
<rect x="30" y="9" width="16" height="16" rx="2" fill="#6B59DC"/>
<rect x="30" y="47" width="16" height="16" rx="2" fill="#D9DB65"/>
<rect x="11" y="47" width="16" height="16" rx="2" fill="#DB65AC"/>
<rect x="49" y="9" width="16" height="16" rx="2" fill="#4BADD7"/>
<rect x="49" y="28" width="16" height="16" rx="2" fill="#C42D18"/>
<rect x="30" y="28" width="16" height="16" rx="2" fill="#18C490"/>
<rect x="11" y="28" width="16" height="16" rx="2" fill="#1890C4"/>
</svg>
