<svg width="24" height="24" viewBox="0 0 24 24" fill="none" xmlns="http://www.w3.org/2000/svg">
<path d="M12 22C13.9778 22 15.9112 21.4135 17.5557 20.3147C19.2002 19.2159 20.4819 17.6541 21.2388 15.8268C21.9957 13.9996 22.1937 11.9889 21.8078 10.0491C21.422 8.10929 20.4696 6.32746 19.0711 4.92893C17.6725 3.53041 15.8907 2.578 13.9509 2.19215C12.0111 1.80629 10.0004 2.00433 8.17316 2.7612C6.3459 3.51808 4.78411 4.79981 3.6853 6.4443C2.58649 8.08879 2 10.0222 2 12C2.00294 14.6513 3.05746 17.1931 4.93218 19.0678C6.80691 20.9425 9.34874 21.9971 12 22ZM12 4C13.5822 4 15.129 4.46919 16.4446 5.34824C17.7601 6.2273 18.7855 7.47672 19.391 8.93853C19.9965 10.4003 20.155 12.0089 19.8463 13.5607C19.5376 15.1126 18.7757 16.538 17.6568 17.6569C16.538 18.7757 15.1126 19.5376 13.5607 19.8463C12.0089 20.155 10.4003 19.9965 8.93853 19.391C7.47672 18.7855 6.22729 17.7602 5.34824 16.4446C4.46919 15.129 4 13.5823 4 12C4.00242 9.87901 4.84606 7.84559 6.34582 6.34583C7.84559 4.84606 9.87901 4.00243 12 4Z" fill="#878AA4"/>
<path d="M10.3138 9.69319C10.0267 9.69319 9.78936 9.451 9.86451 9.1739C9.95738 8.83145 10.1324 8.53929 10.3895 8.29745C10.7681 7.93808 11.2959 7.7584 11.9729 7.7584C12.605 7.7584 13.1168 7.92685 13.5082 8.26375C13.9029 8.60066 14.1002 9.03222 14.1002 9.55843C14.1002 10.2515 13.7633 10.8002 13.0895 11.2044C12.7815 11.3873 12.5713 11.5574 12.459 11.7146C12.406 11.7874 12.3655 11.9346 12.3375 12.0954C12.2894 12.3715 12.0633 12.6002 11.783 12.6002C11.5102 12.6002 11.2867 12.3837 11.3133 12.1122C11.3419 11.8209 11.4006 11.5173 11.4916 11.3729C11.6392 11.1355 11.8815 10.9157 12.2184 10.7135C12.5136 10.5371 12.7189 10.3686 12.8344 10.2082C12.9499 10.0445 13.0077 9.84239 13.0077 9.60175C13.0077 9.33543 12.9082 9.11725 12.7093 8.94719C12.5104 8.77392 12.2473 8.68729 11.92 8.68729C11.5895 8.68729 11.3232 8.77874 11.121 8.96163C11.0305 9.04208 10.958 9.1354 10.9035 9.24158C10.7825 9.47743 10.5789 9.69319 10.3138 9.69319Z" fill="#878AA4"/>
<path fill-rule="evenodd" clip-rule="evenodd" d="M11.121 8.96163C11.0305 9.04208 10.958 9.1354 10.9035 9.24158C10.7825 9.47743 10.5789 9.69319 10.3138 9.69319C10.0267 9.69319 9.78936 9.451 9.86451 9.1739C9.95738 8.83145 10.1324 8.53929 10.3895 8.29745C10.7681 7.93808 11.2959 7.7584 11.9729 7.7584C12.605 7.7584 13.1168 7.92685 13.5082 8.26375C13.9029 8.60066 14.1002 9.03222 14.1002 9.55843C14.1002 10.2515 13.7633 10.8002 13.0895 11.2044C12.7815 11.3873 12.5713 11.5574 12.459 11.7146C12.406 11.7874 12.3655 11.9346 12.3375 12.0954C12.2894 12.3715 12.0633 12.6002 11.783 12.6002C11.5102 12.6002 11.2867 12.3837 11.3133 12.1122C11.3419 11.8209 11.4006 11.5173 11.4916 11.3729C11.6392 11.1355 11.8815 10.9157 12.2184 10.7135C12.5136 10.5371 12.7189 10.3686 12.8344 10.2082C12.9499 10.0445 13.0077 9.84239 13.0077 9.60175C13.0077 9.33543 12.9082 9.11725 12.7093 8.94719C12.5104 8.77392 12.2473 8.68729 11.92 8.68729C11.5895 8.68729 11.3232 8.77874 11.121 8.96163ZM12.5087 9.97597C12.5671 9.89258 12.6077 9.77571 12.6077 9.60175C12.6077 9.45002 12.5576 9.34377 12.4494 9.25124L12.4466 9.24883C12.3368 9.15322 12.1748 9.08729 11.92 9.08729C11.6665 9.08729 11.5031 9.15538 11.3894 9.25824L11.3868 9.2606C11.3327 9.30868 11.291 9.36269 11.2594 9.4242C11.1182 9.69946 10.8113 10.0932 10.3138 10.0932C9.83629 10.0932 9.31636 9.66692 9.47845 9.06921C9.5905 8.65606 9.80384 8.29939 10.1148 8.0067C10.5877 7.55818 11.2253 7.3584 11.9729 7.3584C12.6782 7.3584 13.2893 7.54789 13.7686 7.96005C14.2533 8.37411 14.5002 8.91734 14.5002 9.55843C14.5002 10.4131 14.0704 11.0824 13.2953 11.5474L13.2937 11.5484C13.0054 11.7196 12.8537 11.8533 12.7884 11.9418L12.7876 11.9435C12.7838 11.9522 12.7781 11.9671 12.7712 11.9894C12.7574 12.0343 12.7437 12.0938 12.7315 12.164C12.6569 12.5926 12.2949 13.0002 11.783 13.0002C11.3069 13.0002 10.8624 12.6116 10.9153 12.0731C10.9307 11.916 10.9547 11.7499 10.989 11.5988C11.021 11.4582 11.07 11.2921 11.1526 11.1607C11.3445 10.8524 11.6424 10.5927 12.0126 10.3705C12.289 10.2053 12.4399 10.0707 12.5087 9.97597ZM12.7822 11.9503L12.784 11.9478L12.7822 11.9503Z" fill="#878AA4"/>
<path d="M12.4687 16.2658C12.2631 16.4032 12.0215 16.4765 11.7742 16.4765C11.4427 16.4765 11.1248 16.3448 10.8903 16.1104C10.6559 15.8759 10.5242 15.558 10.5242 15.2265C10.5242 14.9792 10.5975 14.7376 10.7349 14.532C10.8722 14.3264 11.0675 14.1662 11.2959 14.0716C11.5243 13.977 11.7756 13.9523 12.0181 14.0005C12.2606 14.0487 12.4833 14.1678 12.6581 14.3426C12.8329 14.5174 12.952 14.7401 13.0002 14.9826C13.0484 15.2251 13.0237 15.4764 12.9291 15.7048C12.8345 15.9332 12.6743 16.1285 12.4687 16.2658Z" fill="#878AA4"/>
</svg>
