<svg width="24" height="24" viewBox="0 0 24 24" fill="none" xmlns="http://www.w3.org/2000/svg">
<path d="M21.41 8.64013C21.41 8.64013 21.41 8.64013 21.41 8.59013C20.7054 6.66635 19.4269 5.00541 17.7475 3.83199C16.0681 2.65857 14.0688 2.0293 12.02 2.0293C9.97126 2.0293 7.97195 2.65857 6.29252 3.83199C4.6131 5.00541 3.33461 6.66635 2.63001 8.59013C2.63001 8.59013 2.63001 8.59013 2.63001 8.64013C1.84314 10.811 1.84314 13.1892 2.63001 15.3601C2.63001 15.3601 2.63001 15.3601 2.63001 15.4101C3.33461 17.3339 4.6131 18.9948 6.29252 20.1683C7.97195 21.3417 9.97126 21.971 12.02 21.971C14.0688 21.971 16.0681 21.3417 17.7475 20.1683C19.4269 18.9948 20.7054 17.3339 21.41 15.4101C21.41 15.4101 21.41 15.4101 21.41 15.3601C22.1969 13.1892 22.1969 10.811 21.41 8.64013ZM4.26001 14.0001C3.91324 12.6893 3.91324 11.3109 4.26001 10.0001H6.12001C5.96004 11.3287 5.96004 12.6716 6.12001 14.0001H4.26001ZM5.08001 16.0001H6.48001C6.71473 16.892 7.05022 17.7542 7.48001 18.5701C6.49931 17.9021 5.67951 17.0242 5.08001 16.0001ZM6.48001 8.00013H5.08001C5.67088 6.97921 6.4802 6.10159 7.45001 5.43013C7.03057 6.24737 6.70515 7.10954 6.48001 8.00013ZM11 19.7001C9.77178 18.7988 8.90916 17.4854 8.57001 16.0001H11V19.7001ZM11 14.0001H8.14001C7.9534 12.6733 7.9534 11.3269 8.14001 10.0001H11V14.0001ZM11 8.00013H8.57001C8.90916 6.51489 9.77178 5.20144 11 4.30013V8.00013ZM18.92 8.00013H17.52C17.2853 7.10828 16.9498 6.24606 16.52 5.43013C17.5007 6.0982 18.3205 6.97607 18.92 8.00013ZM13 4.30013C14.2282 5.20144 15.0909 6.51489 15.43 8.00013H13V4.30013ZM13 19.7001V16.0001H15.43C15.0909 17.4854 14.2282 18.7988 13 19.7001ZM15.86 14.0001H13V10.0001H15.86C16.0466 11.3269 16.0466 12.6733 15.86 14.0001ZM16.55 18.5701C16.9798 17.7542 17.3153 16.892 17.55 16.0001H18.95C18.3505 17.0242 17.5307 17.9021 16.55 18.5701ZM19.74 14.0001H17.88C17.9613 13.3366 18.0014 12.6686 18 12.0001C18.0011 11.3316 17.961 10.6637 17.88 10.0001H19.74C20.0868 11.3109 20.0868 12.6893 19.74 14.0001Z" fill="#878AA4"/>
</svg>
