<svg width="42" height="42" viewBox="0 0 42 42" fill="none" xmlns="http://www.w3.org/2000/svg">
<path d="M41.9998 27.9999L41.9998 20C41.9998 16.6863 39.3135 14 35.9998 14L19.9999 14C16.6862 14 13.9999 16.6863 13.9999 20L13.9999 35.9999C13.9999 39.3136 16.6862 41.9999 19.9999 41.9999L27.9998 41.9999C27.9998 34.2679 34.2678 27.9999 41.9998 27.9999Z" fill="#8424F0"/>
<path d="M-6.11956e-07 14.0001L-2.62267e-07 22C-1.1742e-07 25.3137 2.68627 28 5.99997 28L27.9999 28L27.9999 6.00011C27.9999 2.68641 25.3136 0.000141945 21.9999 0.00014209L13.9999 0.000142439C13.9999 7.7321 7.73195 14.0001 -6.11956e-07 14.0001Z" fill="#FC8BC9"/>
<path d="M35.9996 14.0001C30.5996 14.0001 28.7913 23.4167 27.9996 28L27.9996 14.0001L35.9996 14.0001Z" fill="#D05FDE"/>
</svg>
