<svg width="120" height="120" viewBox="0 0 120 120" fill="none" xmlns="http://www.w3.org/2000/svg">
<path d="M39.9999 120H62.857C72.3248 120 79.9999 112.325 79.9999 102.857V57.1429C79.9999 47.6751 72.3248 40 62.857 40H17.1427C7.67496 40 -0.00012207 47.6751 -0.00012207 57.1429V80C22.0913 80 39.9999 97.9086 39.9999 120Z" fill="#8424F0"/>
<path d="M79.9999 0H57.1427C47.675 0 39.9999 7.67508 39.9999 17.1429V80H102.857C112.325 80 120 72.3249 120 62.8571V40C97.9085 40 79.9999 22.0914 79.9999 0Z" fill="#FC8BC9"/>
<path d="M79.9999 102.857C79.9999 87.4286 53.0951 82.2619 39.9999 80H79.9999V102.857Z" fill="#D05FDE"/>
</svg>
