<svg width="84" height="57" viewBox="0 0 84 57" fill="none" xmlns="http://www.w3.org/2000/svg">
<path d="M75.2863 17.7758C72.4981 17.7758 71.1038 18.8215 69.7096 19.8671C69.0125 20.2156 67.9668 20.2156 67.6183 19.5186C67.2698 19.1701 67.2698 18.8215 67.2698 18.1245L68.664 2.09129C68.664 1.7428 68.664 1.04565 68.3155 0.697151C67.967 0.348657 67.6183 0 66.9213 0H51.2366C49.8425 0 48.7967 0.697152 48.0997 1.7428C47.4026 2.78844 47.4026 4.18275 48.0997 5.22823C48.7969 6.27388 49.1454 6.97103 49.1454 8.71366C49.1454 11.5019 46.0084 13.9419 42.1743 13.9419C38.3402 13.9419 35.2033 11.5019 35.2033 8.71366C35.2033 7.31952 35.5518 6.27371 36.2489 5.22823C36.9461 4.18258 36.9461 2.78828 36.2489 1.7428C35.5518 0.697315 34.5062 0 33.112 0H17.4273C17.0788 0 16.3817 0.348494 16.0332 0.697151C15.6847 1.04565 15.6847 1.3943 15.6847 2.09129L17.0788 18.1245C17.0788 18.8216 16.7303 19.1701 16.7303 19.5186C16.0332 20.2158 15.3362 20.5643 14.2904 19.8671C12.8962 18.8215 11.5021 18.1243 8.71366 18.1243C3.83393 18.1243 0 22.6554 0 28.5808C0 34.5062 3.83409 39.0372 8.71366 39.0372C11.5019 39.0372 12.8962 37.9916 14.2904 36.9459C14.9875 36.5974 16.0332 36.5974 16.3817 37.2944C16.7302 37.6429 16.7302 37.9916 16.7302 38.6886L15.336 54.7218C15.336 55.0702 15.336 55.7674 15.6845 56.1159C16.033 56.4644 16.3817 56.813 17.0787 56.813H32.7634C34.1575 56.813 35.2033 56.1159 35.9003 55.0702C36.5974 54.0246 36.5974 52.6303 35.9003 51.5848C35.2031 50.5392 34.8546 49.842 34.8546 48.0994C34.8546 45.3111 37.9916 42.8712 41.8257 42.8712C45.6598 42.8712 48.7967 45.3111 48.7967 48.0994C48.7967 49.4935 48.4482 50.5393 47.7511 51.5848C47.0539 52.6305 47.0539 54.0248 47.7511 55.0702C48.4482 56.1157 49.4938 56.813 50.888 56.813H66.5727C66.9212 56.813 67.6183 56.4646 67.9668 56.1159C68.3153 55.7674 68.3153 55.4187 68.3153 54.7218L66.9212 38.6886C66.9212 37.9914 67.2697 37.6429 67.2697 37.2944C67.9668 36.5973 68.6638 36.2488 69.7096 36.9459C71.1038 37.9916 72.4979 38.6887 75.2863 38.6887C80.1661 38.6887 84 34.1577 84 28.2323C84.0002 22.3069 80.1661 17.7758 75.2863 17.7758Z" fill="#2873D9"/>
</svg>
