<svg width="24" height="24" viewBox="0 0 24 24" fill="none" xmlns="http://www.w3.org/2000/svg">
<path d="M5.38084 9.29491L1.37842 7.87202C1.37842 7.87202 1.37841 7.87201 1.37841 7.87201C1.0613 7.7593 0.849577 7.45902 0.850001 7.12244C0.850424 6.7859 1.06281 6.48609 1.38021 6.37416L5.38084 9.29491ZM5.38084 9.29491V13.3934C5.38084 13.7997 5.59492 14.1589 5.97679 14.4684C6.35663 14.7763 6.9142 15.0459 7.63611 15.2802C8.89786 15.6897 10.4472 15.9139 12 15.9139C13.5529 15.9139 15.1022 15.6897 16.364 15.2802C17.0859 15.0459 17.6435 14.7763 18.0233 14.4684C18.4052 14.1589 18.6192 13.7997 18.6192 13.3934V9.29491L20.0129 8.79944V14.3097C19.2544 14.6228 18.7185 15.37 18.7185 16.2412C18.7185 17.1124 19.2544 17.8596 20.0129 18.1727V20.5311C20.0129 20.9699 20.3687 21.3256 20.8075 21.3256C21.2463 21.3256 21.602 20.9699 21.602 20.5311V18.1727C22.3606 17.8596 22.8964 17.1124 22.8964 16.2412C22.8964 15.37 22.3606 14.6228 21.602 14.3097V8.23448L22.6216 7.87202C22.9387 7.7593 23.1504 7.45901 23.15 7.12246C23.1496 6.78588 22.9372 6.48613 22.6198 6.37416L22.5699 6.51561L22.6198 6.37416L12.2644 2.72049C12.2644 2.72049 12.2644 2.72048 12.2644 2.72048C12.0933 2.6601 11.9067 2.6601 11.7357 2.72048C11.7357 2.72048 11.7357 2.72049 11.7357 2.72049L1.38023 6.37415L5.38084 9.29491ZM20.8074 16.7411C20.5319 16.7411 20.3075 16.5167 20.3075 16.2412C20.3075 15.9656 20.5319 15.7413 20.8074 15.7413C21.083 15.7413 21.3073 15.9656 21.3073 16.2412C21.3073 16.5167 21.083 16.7411 20.8074 16.7411ZM12 9.96158L4.02447 7.12621L12 4.31225L19.9755 7.12626L12 9.96158ZM6.96986 9.88243C7.07339 9.93004 7.21095 9.99268 7.37471 10.0658C7.75409 10.2353 8.27454 10.4614 8.83842 10.6876C9.40194 10.9136 10.0108 11.1405 10.5664 11.3112C11.1176 11.4805 11.6319 11.5994 12 11.5994C12.368 11.5994 12.8823 11.4805 13.4335 11.3112C13.9892 11.1405 14.598 10.9136 15.1615 10.6876C15.7254 10.4614 16.2458 10.2353 16.6252 10.0658C16.789 9.99268 16.9265 9.93004 17.0301 9.88243L17.0301 13.2293C16.8795 13.3514 16.4557 13.6083 15.5751 13.8595C14.5254 14.159 13.2552 14.3248 12 14.3248C10.7448 14.3248 9.4746 14.159 8.4249 13.8595C7.5443 13.6083 7.12043 13.3514 6.96986 13.2293V9.88243Z" fill="#878AA4" stroke="#878AA4" stroke-width="0.3"/>
</svg>
